<svg width="25" height="25" viewBox="0 0 25 25" fill="none"  xmlns="http://www.w3.org/2000/svg">
<path d="M23.0945 14.9109L22.6996 14.7531C22.298 14.5922 21.9395 14.3559 21.6336 14.05C20.8859 13.3023 19.8922 12.8906 18.8352 12.8906H18.1191L22.1594 8.85039C22.75 8.26016 23.075 7.47539 23.075 6.64062C23.075 5.80586 22.75 5.02109 22.1594 4.43086C21.5691 3.84063 20.7844 3.51562 19.9496 3.51562C19.1148 3.51562 18.3301 3.84063 17.7398 4.43086L17.1875 4.9832L16.6352 4.43086C16.0445 3.84063 15.2598 3.51562 14.4254 3.51562C13.591 3.51562 12.8059 3.84063 12.216 4.43086C11.6254 5.02109 11.3004 5.80586 11.3004 6.64062C11.3004 7.47539 11.6254 8.26016 12.216 8.85039L16.2559 12.8906H5.28711L3.05937 9.54883C2.98672 9.44023 2.86484 9.375 2.73438 9.375H1.17188C0.955859 9.375 0.78125 9.55 0.78125 9.76562V15.625C0.78125 15.7957 0.891797 15.9461 1.0543 15.9977L8.47617 18.3414C8.51406 18.3531 8.55352 18.3594 8.59375 18.3594H9.76562V23.8281C9.76562 24.0437 9.94023 24.2188 10.1562 24.2188H12.8906C13.059 24.2188 13.2078 24.1113 13.2609 23.9516L15.1254 18.3594H22.4305C23.4164 18.3594 24.2188 17.557 24.2188 16.5711C24.2188 15.8355 23.7773 15.184 23.0945 14.9109ZM12.0816 6.64062C12.0816 6.01445 12.3254 5.42617 12.7684 4.9832C13.2105 4.54062 13.7992 4.29688 14.4254 4.29688C15.0516 4.29688 15.6398 4.54062 16.0828 4.9832L16.9113 5.81172C17.0641 5.96445 17.3109 5.96445 17.4637 5.81172L18.2922 4.9832C18.7352 4.54062 19.3238 4.29688 19.9496 4.29688C20.5754 4.29688 21.1641 4.54062 21.6066 4.9832C22.0496 5.42578 22.2934 6.01445 22.2934 6.64062C22.2934 7.2668 22.0496 7.85508 21.6066 8.29805L17.1875 12.7176L12.7684 8.29805C12.3254 7.85508 12.0816 7.2668 12.0816 6.64062ZM2.52539 10.1562L4.34844 12.8906H1.5625V10.1562H2.52539ZM22.4305 17.5781H14.8438C14.6754 17.5781 14.5266 17.6855 14.4734 17.8453L12.609 23.4375H10.5469V17.9688C10.5469 17.7531 10.3723 17.5781 10.1562 17.5781H8.65391L1.5625 15.3387V13.6719H5.07812H18.8352C19.609 13.6719 20.3387 13.9496 20.9168 14.4531H19.9219V15.2344H21.875V15.2109C22.0465 15.3117 22.223 15.4039 22.4098 15.4785L22.8047 15.6363C23.1891 15.7898 23.4375 16.157 23.4375 16.5711C23.4375 17.1266 22.9859 17.5781 22.4305 17.5781Z" fill="#F27983" />
<path d="M18.75 14.4531H17.9688V15.2344H18.75V14.4531Z" fill="black"/>
<path d="M17.1875 14.4531H16.4062V15.2344H17.1875V14.4531Z" fill="black"/>
<path d="M15.625 14.4531H14.8438V15.2344H15.625V14.4531Z" fill="black"/>
<path d="M14.0625 14.4531H13.2812V15.2344H14.0625V14.4531Z" fill="black"/>
<path d="M12.5 14.4531H11.7188V15.2344H12.5V14.4531Z" fill="black"/>
<path d="M10.9375 14.4531H10.1562V15.2344H10.9375V14.4531Z" fill="black"/>
<path d="M9.375 14.4531H8.59375V15.2344H9.375V14.4531Z" fill="black"/>
<path d="M7.8125 14.4531H7.03125V15.2344H7.8125V14.4531Z" fill="black"/>
<path d="M6.25 14.4531H5.46875V15.2344H6.25V14.4531Z" fill="black"/>
<path d="M6.93865 5.94492C6.47224 5.73789 5.98982 5.52344 5.47888 5.37539C4.76716 5.16875 3.72693 5.02852 2.81482 5.53281L3.19255 6.21641C3.90623 5.82266 4.79529 5.99063 5.26169 6.12578C5.72185 6.25899 6.15896 6.45313 6.62185 6.65899C6.90701 6.78594 7.19294 6.9125 7.48396 7.025C7.83123 7.15899 8.23904 7.29219 8.67263 7.29219C8.71833 7.29219 8.76443 7.29063 8.81091 7.2875C9.39021 7.24883 9.88982 6.9418 10.1136 6.48555L9.41248 6.14102C9.31404 6.34102 9.05154 6.48828 8.75857 6.50781C8.42615 6.52969 8.06912 6.41328 7.7656 6.29609C7.48591 6.18828 7.21248 6.06641 6.93865 5.94492Z" fill="black"/>
<path d="M6.1324 9.37812C5.40584 9.35429 5.05427 9.6332 4.88904 9.87148L5.53162 10.3168C5.6074 10.207 5.82185 10.1461 6.1074 10.159C6.90466 10.1844 7.6613 10.4902 8.4613 10.8141C9.17068 11.1012 9.90466 11.398 10.6937 11.4984C10.8058 11.5129 10.9328 11.5254 11.0687 11.5254C11.2465 11.5254 11.4386 11.5039 11.6301 11.4379C12.0238 11.302 12.3179 10.991 12.3972 10.627L11.6344 10.4602C11.6133 10.5555 11.507 10.6539 11.375 10.6992C11.2312 10.7484 11.0523 10.7562 10.7933 10.7234C10.1043 10.6355 9.44919 10.3707 8.75466 10.0895C7.92576 9.75468 7.06873 9.40781 6.1324 9.37812Z" fill="black"/>
<path d="M24.2188 0.78125H17.5781V1.5625H24.2188V0.78125Z" fill="black"/>
<path d="M16.7969 0.78125H16.0156V1.5625H16.7969V0.78125Z" fill="black"/>
<path d="M15.2344 0.78125H14.4531V1.5625H15.2344V0.78125Z" fill="black"/>
<path d="M13.6719 0.78125H12.8906V1.5625H13.6719V0.78125Z" fill="black"/>
<path d="M12.1094 2.34375H11.3281V3.125H12.1094V2.34375Z" fill="black"/>
<path d="M10.5469 2.34375H9.76562V3.125H10.5469V2.34375Z" fill="black"/>
<path d="M8.98438 2.34375H8.20312V3.125H8.98438V2.34375Z" fill="black"/>
</svg>
